# xmcd
#
# Track frame offsets:
# 150
# 15905
# 38090
# 60173
# 75039
# 88948
# 106116
# 124780
# 139229
# 161156
# 178198
#
# Disc length: 2644 seconds
#
#
# Revision: 0
# Processed by: cddbd v1.5.2PL0 Copyright (c) Steve Scherf et al.
# Submitted via: FreeRIP 2.951 
#
DISCID=7b0a520b
DTITLE=Johnny Chimes - Blue Hour the
DYEAR=2000
DGENRE=Blues
TTITLE0=Fraulina
TTITLE1=Draw the Line
TTITLE2=Blue Hour
TTITLE3=Its that HooDoo
TTITLE4=Luisanne
TTITLE5=I Been Searching
TTITLE6=Can't Say What You Mean
TTITLE7=We Love a Good Fight
TTITLE8=Road We Travel
TTITLE9=The Farewell
TTITLE10=Crescent Moon
EXTD=
EXTT0=
EXTT1=
EXTT2=
EXTT3=
EXTT4=
EXTT5=
EXTT6=
EXTT7=
EXTT8=
EXTT9=
EXTT10=
PLAYORDER=
